<svg width="21" height="21" viewBox="0 0 21 21" fill="none" xmlns="http://www.w3.org/2000/svg">
<path d="M2.5 0C1.12524 0 0 1.12524 0 2.5V18.5C0 19.8748 1.12524 21 2.5 21H18.5C19.8748 21 21 19.8748 21 18.5V2.5C21 1.12524 19.8748 0 18.5 0H2.5ZM2.5 1H18.5C19.3342 1 20 1.66576 20 2.5V18.5C20 19.3342 19.3342 20 18.5 20H2.5C1.66576 20 1 19.3342 1 18.5V2.5C1 1.66576 1.66576 1 2.5 1ZM5 3.50586C4.45239 3.50586 3.95961 3.66954 3.59473 3.97656C3.22984 4.28359 3.00586 4.74226 3.00586 5.2334C3.00586 6.16699 3.81564 6.8948 4.8457 6.9668L4.84766 6.96777C4.89674 6.9845 4.94815 6.9934 5 6.99414C6.13651 6.99414 6.99414 6.19804 6.99414 5.2334C6.99405 5.2246 6.99372 5.21581 6.99316 5.20703C6.94229 4.25692 6.09522 3.50586 5 3.50586ZM5 4.49414C5.69612 4.49414 5.97098 4.80502 6.00098 5.24609C5.9949 5.67422 5.73005 6.00586 5 6.00586C4.3073 6.00586 3.99414 5.65111 3.99414 5.2334C3.99414 5.02454 4.07035 4.86715 4.23047 4.73242C4.39059 4.59769 4.64761 4.49414 5 4.49414ZM3.5 7.5C3.3674 7.50001 3.24023 7.5527 3.14646 7.64646C3.0527 7.74023 3.00001 7.8674 3 8V17.5C3.00001 17.6326 3.0527 17.7598 3.14646 17.8535C3.24023 17.9473 3.3674 18 3.5 18H6.5C6.6326 18 6.75977 17.9473 6.85354 17.8535C6.9473 17.7598 6.99999 17.6326 7 17.5V14.5674V8C6.99999 7.8674 6.9473 7.74023 6.85354 7.64646C6.75977 7.5527 6.6326 7.50001 6.5 7.5H3.5ZM8 7.5C7.8674 7.50001 7.74023 7.5527 7.64646 7.64646C7.5527 7.74023 7.50001 7.8674 7.5 8V17.5C7.50001 17.6326 7.5527 17.7598 7.64646 17.8535C7.74023 17.9473 7.8674 18 8 18H11C11.1326 18 11.2598 17.9473 11.3535 17.8535C11.4473 17.7598 11.5 17.6326 11.5 17.5V12.5C11.5 12.0852 11.6132 11.6725 11.8125 11.4023C12.0118 11.1322 12.2632 10.97 12.7412 10.9785C13.2341 10.987 13.495 11.1558 13.6924 11.4209C13.8898 11.686 14 12.0833 14 12.5V17.5C14 17.6326 14.0527 17.7598 14.1465 17.8535C14.2402 17.9473 14.3674 18 14.5 18H17.5C17.6326 18 17.7598 17.9473 17.8535 17.8535C17.9473 17.7598 18 17.6326 18 17.5V12.1309C18 10.6501 17.5614 9.47717 16.8096 8.68359C16.0577 7.89002 15.0121 7.5 13.9062 7.5C12.8552 7.5 12.0554 7.85244 11.5 8.21191V8C11.5 7.8674 11.4473 7.74023 11.3535 7.64646C11.2598 7.5527 11.1326 7.50001 11 7.5H8ZM4 8.5H6V14.5674V17H4V8.5ZM8.5 8.5H10.5V9.28027C10.5 9.38512 10.533 9.4873 10.5943 9.57237C10.6556 9.65744 10.742 9.72111 10.8415 9.75436C10.9409 9.78761 11.0483 9.78877 11.1484 9.75767C11.2485 9.72657 11.3363 9.66479 11.3994 9.58105C11.3994 9.58105 12.1846 8.5 13.9062 8.5C14.7829 8.5 15.5347 8.79129 16.084 9.37109C16.6333 9.9509 17 10.8441 17 12.1309V17H15V12.5C15 11.9167 14.8602 11.3136 14.4951 10.8232C14.13 10.3329 13.5159 9.99154 12.7588 9.97852C11.9978 9.965 11.3738 10.3135 11.0078 10.8096C10.6419 11.3056 10.5 11.9148 10.5 12.5V17H8.5V8.5Z" fill="#F0FDFA"/>
</svg>
