<svg width="292" height="98" viewBox="0 0 292 98" fill="none" xmlns="http://www.w3.org/2000/svg">
<g clip-path="url(#clip0_146_4)">
<mask id="mask0_146_4" style="mask-type:luminance" maskUnits="userSpaceOnUse" x="0" y="0" width="292" height="98">
<path d="M292 0H0V98H292V0Z" fill="white"/>
</mask>
<g mask="url(#mask0_146_4)">
<path d="M56.5519 21.8951C59.5965 25.0704 61.9771 28.9102 63.6937 33.414C65.4105 37.8854 66.2687 42.8431 66.2687 48.2866C66.2687 53.7626 65.3943 58.7363 63.6451 63.2079C61.8961 67.6793 59.467 71.4866 56.3575 74.6296C53.3454 77.7402 49.8472 80.138 45.8634 81.8228C41.8796 83.5078 37.6365 84.3503 33.1343 84.3503C28.3408 84.3503 23.9033 83.4592 19.8223 81.6771C15.7736 79.8626 12.2918 77.3514 9.37672 74.1436C6.46168 71.0006 4.16204 67.1933 2.47778 62.7219C0.825931 58.2178 0 53.4062 0 48.2866C0 42.681 0.874514 37.6911 2.62354 33.3168C4.37258 28.9102 6.78557 25.1029 9.86257 21.8951C12.9072 18.7196 16.4376 16.2894 20.4539 14.6045C24.5026 12.9196 28.7294 12.0771 33.1343 12.0771C37.7013 12.0771 42.009 12.9358 46.0578 14.6531C50.1065 16.3705 53.6044 18.7844 56.5519 21.8951ZM49.3128 70.7899C51.1268 67.8414 52.4385 64.5039 53.2482 60.7777C54.0903 57.0514 54.5113 52.8877 54.5113 48.2866C54.5113 43.5559 54.0417 39.2139 53.1024 35.2609C52.1955 31.3078 50.8513 27.9381 49.0699 25.1515C47.2886 22.3973 45.0537 20.2586 42.3652 18.7358C39.677 17.1805 36.6 16.4029 33.1343 16.4029C29.2477 16.4029 25.9439 17.2939 23.2232 19.076C20.5025 20.8581 18.2838 23.2397 16.5672 26.2206C14.9477 29.072 13.7331 32.4095 12.9234 36.233C12.146 40.0565 11.7574 44.0743 11.7574 48.2866C11.7574 52.9526 12.1784 57.1649 13.0205 60.9236C13.8627 64.682 15.1906 68.0195 17.0044 70.9358C18.7535 73.7872 20.956 76.0229 23.6119 77.6429C26.2678 79.2307 29.4419 80.0245 33.1343 80.0245C36.6 80.0245 39.7256 79.2145 42.5111 77.5945C45.2966 75.9743 47.5638 73.7061 49.3128 70.7899Z" fill="#134E4A"/>
<path fill-rule="evenodd" clip-rule="evenodd" d="M35.8827 0.275026C35.7429 0.56809 35.6597 0.622029 35.401 0.586938C35.2228 0.562703 34.9521 0.928812 34.9521 1.19399C34.9521 1.45882 35.0808 1.53743 35.5142 1.53743C35.7961 1.53743 35.9916 1.73556 35.8166 1.84378C35.7194 1.9039 35.707 2.49254 35.8 2.63185C35.862 2.72497 36.197 2.92717 36.2889 2.92717C36.3141 2.92717 36.4925 2.69483 36.6854 2.4108C37.0735 1.83892 37.1114 1.58651 36.884 1.08681C36.7325 0.754401 36.6813 0.736768 36.3096 0.889292C36.1687 0.946965 36.1568 0.928379 36.2186 0.747104C36.4387 0.101917 36.1551 -0.296504 35.8827 0.275026ZM33.7977 1.23126C33.7163 1.29075 33.6498 1.39759 33.6498 1.46855C33.6498 1.5396 33.5712 1.68822 33.4753 1.79896C33.344 1.95045 33.2184 1.99692 32.9667 1.98701C32.568 1.97138 32.3627 2.15787 32.2907 2.60015C32.2495 2.85499 32.2808 2.93889 32.4891 3.13208C32.6913 3.3196 32.8197 3.36146 33.1929 3.36146C33.7102 3.36146 33.7615 3.45797 33.5111 3.96018C33.3412 4.30094 33.4009 4.58018 33.7166 4.92248C33.9947 5.2238 34.3649 5.33932 34.5124 5.17074C34.82 4.81887 35.4745 3.83989 35.4826 3.71933C35.5056 3.38336 35.4445 3.13545 35.2906 2.93977C35.2 2.82442 35.1258 2.64236 35.1258 2.53526C35.1258 2.19322 34.9244 2.11512 34.5646 2.31742C34.3894 2.41576 34.2127 2.47542 34.1714 2.44996C34.0915 2.40055 34.1765 2.02479 34.3346 1.72956C34.4559 1.50278 34.3892 1.32515 34.1401 1.21171C34 1.14787 33.9043 1.15334 33.7977 1.23126ZM31.3059 3.51C31.0766 3.67052 30.7846 3.94889 30.7846 4.00665C30.7846 4.10906 30.1158 5.16292 29.9638 5.30033C29.7677 5.47743 29.6488 5.4631 28.9612 5.17977C28.6986 5.07146 28.2399 4.96653 27.9416 4.94655C27.4326 4.91233 27.384 4.92597 27.1385 5.17142C26.7539 5.5563 26.79 5.81949 27.2942 6.30459C27.7568 6.74956 27.874 6.83139 28.4403 7.10474C28.6551 7.20845 28.9781 7.36922 29.1582 7.46198C29.575 7.6767 29.9058 7.60998 30.1343 7.26516C30.3537 6.9338 30.6482 6.85094 30.8756 7.05679C31.0287 7.1955 31.0329 7.22643 30.9155 7.35618C30.8436 7.43584 30.7846 7.52608 30.7846 7.55674C30.7846 7.58741 30.6122 7.90417 30.4016 8.26065C29.7807 9.31121 29.7824 9.33475 30.511 9.82437C31.3036 10.3568 31.6468 10.2382 32.3473 9.18952C32.5145 8.93928 32.7001 8.68148 32.7598 8.61659C32.8195 8.55163 32.8683 8.45669 32.8683 8.40544C32.8683 8.35429 32.8977 8.31242 32.9335 8.31242C33.0364 8.31242 33.3753 7.60599 33.4343 7.26924C33.4998 6.89436 33.3966 6.61745 33.0541 6.24952C32.754 5.92719 32.6984 5.9159 32.335 6.10395C32.1898 6.17907 32.0498 6.21955 32.024 6.19394C31.9667 6.13661 32.0973 5.64906 32.3403 5.01178C32.4405 4.74904 32.5021 4.48073 32.4772 4.41558C32.4337 4.30154 32.2107 4.31006 31.9132 4.43704C31.8058 4.4829 31.7879 4.41984 31.8117 4.07718C31.8339 3.75555 31.8036 3.62821 31.6766 3.51338C31.5233 3.37457 31.4993 3.37433 31.3059 3.51ZM27.164 7.81897C27.0199 7.97748 26.8164 8.35863 26.7118 8.66584C26.3601 9.70042 26.1759 10.0035 25.7701 10.2148C25.6111 10.2976 25.4112 10.2753 24.7029 10.0962C24.2236 9.97506 23.6752 9.87588 23.4844 9.87588C22.7525 9.87588 22.0885 10.5043 22.2282 11.0648C22.3786 11.6673 23.6653 12.5252 24.837 12.8038C25.768 13.0252 26.0018 13.0364 26.1872 12.8686C26.2803 12.7843 26.3571 12.6725 26.3579 12.6202C26.3605 12.4432 26.8556 11.9605 27.0346 11.9605C27.4624 11.9605 27.563 12.402 27.2465 12.8911C27.0747 13.1566 26.9969 14.0922 27.1329 14.2562C27.1911 14.3263 27.3808 14.4307 27.5549 14.4881C27.7288 14.5455 27.9237 14.6452 27.9882 14.7097C28.0543 14.7758 28.2888 14.8268 28.5266 14.8268C28.926 14.8268 28.9683 14.8033 29.3451 14.3723C29.5638 14.1223 29.7426 13.8836 29.7426 13.8419C29.7426 13.8002 29.8521 13.6237 29.9856 13.4496C30.2 13.1703 30.3229 12.9196 30.6203 12.1518C30.7424 11.8372 30.7138 11.6726 30.473 11.3011C30.1463 10.7971 29.7298 10.536 29.3508 10.5975C29.1833 10.6247 28.9827 10.7105 28.9051 10.7882C28.6456 11.0478 28.5741 10.8046 28.7338 10.2059C29.0105 9.16798 29.1096 8.58256 29.0232 8.49604C28.9297 8.40258 28.5654 8.53539 28.3535 8.74019C28.2383 8.85146 28.2174 8.8063 28.1732 8.35037C28.1042 7.63978 28.0422 7.5307 27.7069 7.5307C27.4997 7.5307 27.3576 7.60608 27.164 7.81897ZM23.2084 13.7897C23.1246 13.8398 22.9701 14.0447 22.8652 14.2452C22.6988 14.5625 22.6736 14.75 22.6704 15.6954C22.6674 16.522 22.635 16.8255 22.5346 16.9672C22.4622 17.0695 22.1301 17.2777 21.7966 17.4299C20.4163 18.0598 19.9084 18.3159 19.7615 18.4567C19.4608 18.7443 19.3173 19.1596 19.3128 19.7559C19.3088 20.2803 19.331 20.3576 19.5379 20.5357C19.8299 20.7869 20.1532 20.7858 20.8283 20.5312C21.7454 20.1852 21.9649 20.1092 22.1889 20.0593C22.3083 20.0329 22.5622 19.91 22.7533 19.7864C22.9443 19.6628 23.3149 19.4832 23.5767 19.3874C24.0526 19.2133 24.0531 19.2127 24.1982 18.6751C24.2779 18.3792 24.3702 18.0934 24.4034 18.0401C24.4968 17.8885 24.8965 17.7653 25.1158 17.8203C25.3031 17.8673 25.3146 17.9122 25.3146 18.5934C25.3146 19.2244 25.3402 19.3463 25.516 19.5508C25.7288 19.7988 26.3739 20.0384 26.8285 20.0384C26.9775 20.0384 27.1858 20.099 27.2917 20.1733C27.3976 20.2474 27.6449 20.3145 27.841 20.3224C28.3109 20.341 28.4384 20.1631 28.4463 19.4788C28.4552 18.701 28.4714 18.5995 28.7896 17.3353C28.867 17.0277 28.8661 16.7822 28.7858 16.2841L28.6811 15.6341L28.2274 15.491C27.978 15.4123 27.5396 15.348 27.2533 15.348C26.7695 15.348 26.7102 15.3706 26.4144 15.6665C26.2392 15.8416 26.096 16.0175 26.096 16.0574C26.096 16.0971 26.0425 16.1297 25.9771 16.1297C25.8392 16.1297 25.5751 15.2708 25.5749 14.8211C25.5747 14.4903 25.3321 13.9443 25.1612 13.8906C25.0149 13.8445 24.5331 14.3678 24.5331 14.5727C24.5331 14.6808 24.49 14.7179 24.403 14.6845C24.3312 14.657 24.2726 14.5611 24.2726 14.4715C24.2726 14.2493 23.8442 13.8011 23.578 13.7447C23.4588 13.7195 23.2922 13.7397 23.2084 13.7897ZM23.9699 20.9053C23.8499 21.0953 23.7517 21.3299 23.7517 21.4264C23.7517 21.6657 23.595 21.6467 23.387 21.3823C23.1928 21.1354 22.6278 20.8201 22.3795 20.8201C22.0253 20.8201 21.7795 21.3685 21.6977 22.3397C21.6593 22.7976 21.6817 23.0317 21.7884 23.2861C22.0148 23.827 22.0647 24.51 21.8967 24.7667C21.7735 24.9546 20.6369 25.771 20.4983 25.771C20.3609 25.771 19.3508 26.4826 19.241 26.6568C18.8974 27.2022 18.8027 27.4832 18.8027 27.9575C18.8027 28.3593 18.8397 28.4914 18.9929 28.6339C19.3339 28.9518 19.7018 28.8729 20.9466 28.2148C21.0329 28.169 21.3353 28.0207 21.6184 27.8851C21.9716 27.7157 22.2303 27.5114 22.4432 27.2331C22.7685 26.8079 23.0294 26.64 23.6475 26.4581C24.1976 26.2964 24.2756 26.2077 24.35 25.6594C24.4241 25.1125 24.6564 24.7821 25.0329 24.6875C25.3432 24.6095 25.5096 24.8155 25.745 25.5686C26.0527 26.5533 26.0338 26.5448 27.8525 26.5226C29.8347 26.4984 29.8229 26.5101 29.4907 24.9024C29.3982 24.4548 29.3479 23.8905 29.363 23.4693C29.3896 22.7219 29.1639 21.7302 28.909 21.475C28.7233 21.2894 27.4004 21.2918 26.8511 21.4792C26.5063 21.5968 26.4006 21.6927 26.1348 22.1305C25.9632 22.413 25.7722 22.644 25.7102 22.644C25.6107 22.644 25.3244 22.129 24.8894 21.1674C24.568 20.4575 24.3005 20.3814 23.9699 20.9053ZM27.6154 27.0028C26.0446 27.1539 25.4883 27.512 25.4883 28.3718C25.4883 28.6198 25.3926 28.7408 25.1202 28.838C24.9487 28.8991 24.5331 28.5368 24.5331 28.3263C24.5331 28.1788 24.322 27.8175 24.0678 27.5299C23.8544 27.2883 23.4379 27.276 23.1656 27.5033C23.0583 27.593 22.9703 27.6922 22.9703 27.7238C22.9703 27.7553 22.9089 27.8426 22.8339 27.9178C22.7261 28.0254 22.7054 28.1933 22.7354 28.7149C22.7563 29.0783 22.7883 29.4494 22.8068 29.5397C22.8484 29.7441 22.4091 29.9237 21.8417 29.9343C21.2933 29.9443 20.7615 30.3274 20.5467 30.8672C20.4352 31.1472 20.4561 31.9946 20.5868 32.5026C20.6691 32.8225 20.914 33.1783 21.3424 33.601C21.7203 33.9738 21.7358 34.1132 21.4834 34.8611C21.3411 35.2825 21.1831 35.5263 20.7927 35.9266C19.8092 36.9351 19.6679 37.3657 20.0746 38.1131C20.3336 38.5894 20.4857 38.6668 21.0073 38.5886C21.4491 38.5225 21.7567 38.2535 22.0289 37.6965C22.1408 37.4673 22.2755 37.2408 22.3281 37.1929C22.3808 37.1452 22.4812 37.0195 22.5515 36.9134C22.6216 36.8075 22.852 36.5304 23.0634 36.2979C23.2749 36.0655 23.5226 35.7417 23.614 35.5787C23.7054 35.4155 23.883 35.1452 24.0089 34.9781C24.2931 34.6004 24.5331 33.8326 24.5331 33.3013C24.5331 32.5411 24.9862 32.0249 25.6535 32.0249C25.8748 32.0249 25.9103 32.0665 26.0029 32.4374C26.2544 33.4438 26.4048 33.8492 26.5301 33.8586C26.7878 33.8775 27.0954 33.8298 27.1378 33.7642C27.1996 33.6692 27.9714 33.3277 28.1246 33.3277C28.195 33.3277 28.4816 33.2691 28.7613 33.1973C29.0836 33.1148 29.5778 33.075 30.1107 33.0888C30.8822 33.1087 30.9677 33.0946 31.1478 32.915C31.3189 32.7448 31.343 32.6363 31.3343 32.0752C31.3264 31.5551 31.2748 31.3246 31.0666 30.8809C30.6821 30.0606 30.5559 29.3056 30.6945 28.6526C30.8177 28.0715 30.7737 27.7723 30.511 27.4031C30.1574 26.9063 29.5262 26.819 27.6154 27.0028ZM30.4805 33.8844C30.4329 33.9025 30.1007 33.9672 29.7426 34.0284C28.7274 34.2018 28.2804 34.4971 28.0518 35.1454C27.9789 35.352 27.9192 35.5895 27.9192 35.6729C27.9192 35.8318 27.4613 35.9826 27.2936 35.8789C27.1664 35.8003 26.8816 35.1394 26.8793 34.9178C26.8759 34.5801 26.5408 34.1264 26.2154 34.019C25.6348 33.8273 25.1537 34.1734 24.9199 34.9513C24.8078 35.3237 24.8012 35.4965 24.8819 35.9413C24.9915 36.5457 24.9742 36.5751 24.4531 36.6729C24.0496 36.7487 23.1649 37.1904 22.9271 37.4347C22.2864 38.0937 22.3034 39.5164 22.9686 40.8675C23.0743 41.0824 23.1297 41.3138 23.0988 41.4114C23.0317 41.6227 22.6943 41.8002 22.2062 41.8814C21.81 41.9474 21.5619 42.1517 21.3579 42.5799C21.1904 42.9317 20.8865 44.0065 20.8865 44.2474C20.8865 44.5568 21.2239 45.1186 21.6066 45.4462C22.3034 46.0429 23.0193 46.0259 23.4032 45.4034C23.5219 45.211 23.6489 45.0536 23.6854 45.0536C23.722 45.0536 23.7517 45.0137 23.7517 44.9649C23.7517 44.9159 24.0341 44.5806 24.3794 44.2195C24.98 43.5915 25.5393 43.2297 25.9095 43.2297C26.0033 43.2297 26.2633 43.0514 26.4875 42.8335L26.8948 42.4376L26.8422 41.7261C26.8134 41.3349 26.7672 40.7755 26.7395 40.4829C26.6909 39.9674 26.6973 39.9454 26.9488 39.7663C27.261 39.5439 27.7222 39.53 27.9701 39.7354C28.0697 39.8182 28.2195 40.0811 28.303 40.3198C28.5157 40.9282 28.7152 41.3211 28.9179 41.5303C29.0699 41.6873 29.1884 41.7082 29.8728 41.6981C30.4945 41.6886 30.7786 41.6383 31.262 41.4519C31.9955 41.1692 32.7114 41.0009 33.4985 40.9263C34.1575 40.8636 34.2247 40.8004 34.3123 40.1604C34.3803 39.6646 34.2306 39.2198 33.8061 38.657C33.4425 38.1751 33.1287 37.259 33.1287 36.6797C33.1287 36.4928 33.0656 36.1213 32.9883 35.8542C32.5643 34.3893 32.1434 33.9534 31.0885 33.8856C30.8019 33.8671 30.5284 33.8665 30.4805 33.8844ZM33.8668 41.6321C33.4734 41.7699 32.9375 41.8692 32.3473 41.9137C31.7665 41.9578 31.3307 42.0377 31.1467 42.1342C30.7968 42.3175 30.5286 42.8567 30.5259 43.3816C30.524 43.7506 30.5239 43.7508 30.1985 43.748C29.9005 43.7453 29.4821 43.5161 29.4821 43.3556C29.4821 43.3207 29.3952 43.1181 29.2892 42.9057C28.8595 42.0448 27.8996 42.0693 27.4726 42.9519C27.2636 43.3835 27.2557 43.5062 27.3908 44.2387C27.4445 44.5308 27.4671 44.8241 27.4407 44.8902C27.3906 45.0154 26.5674 45.5749 26.4332 45.5749C26.391 45.5749 26.3565 45.6101 26.3565 45.6531C26.3565 45.6963 26.222 45.8107 26.0578 45.9077C25.8935 46.0048 25.6537 46.2434 25.5248 46.4382C25.3191 46.749 25.2899 46.88 25.2861 47.5081C25.2826 48.1146 25.3178 48.2974 25.516 48.7035C25.6448 48.9672 25.886 49.3387 26.0516 49.5288C26.5229 50.069 26.4551 50.2928 25.7085 50.6603C24.9233 51.0469 24.5237 51.7653 24.5032 52.8275C24.4926 53.3693 24.5241 53.5732 24.646 53.7526C25.0184 54.3012 25.9931 54.6672 26.606 54.4886C26.8693 54.4117 27.3983 53.848 27.3983 53.6441C27.3983 53.6058 27.5155 53.4008 27.6589 53.1884C27.802 52.9762 27.9192 52.7592 27.9192 52.7063C27.9192 52.6535 27.9503 52.6104 27.9884 52.6104C28.0264 52.6104 28.1922 52.3465 28.357 52.0241C28.5217 51.7016 28.7764 51.3009 28.9231 51.1338C29.0697 50.9666 29.3726 50.5885 29.5962 50.2936C30.0452 49.702 30.0919 49.4474 29.9029 48.6284C29.73 47.8788 30.0354 47.4819 30.8827 47.3555L31.2848 47.2954L31.4336 47.7162C31.8207 48.8104 32.0914 49.1834 32.5635 49.272C33.0554 49.3643 33.2948 49.248 34.0198 48.566C34.3971 48.2107 34.7614 47.9199 34.8291 47.9199C34.8967 47.9199 34.9521 47.8817 34.9521 47.8347C34.9521 47.788 35.0595 47.7239 35.1908 47.6925C35.3223 47.6612 35.4692 47.6048 35.5174 47.5671C35.6344 47.4761 36.4388 47.1864 37.0507 47.0149C37.4846 46.8932 37.5501 46.8453 37.6012 46.6133C37.7504 45.9334 37.4627 45.2104 36.9942 45.0879C36.6933 45.0095 36.5507 44.6944 36.3887 43.7508C36.2111 42.7156 36.0975 42.4436 35.6636 42.0135C34.9792 41.3355 34.8144 41.3004 33.8668 41.6321ZM37.3397 47.4968C37.0532 47.6442 36.8058 47.7997 36.7898 47.8425C36.774 47.8851 36.7235 47.9199 36.6777 47.9199C36.5805 47.9199 36.0508 48.2808 36.0086 48.376C35.9926 48.4118 35.9242 48.4412 35.8565 48.4412C35.7889 48.4412 35.7335 48.4736 35.7335 48.5132C35.7335 48.553 35.5502 48.7171 35.3264 48.8779C34.8021 49.2546 33.1652 50.9067 32.8992 51.3275C32.6521 51.7187 32.6477 51.8339 32.8582 52.3933C33.1149 53.0755 32.8996 53.3921 32.1794 53.3921C31.8946 53.3921 31.8264 53.3614 31.8264 53.2323C31.8264 53.1443 31.6506 52.8861 31.4357 52.6586C31.2209 52.4309 31.0449 52.2293 31.0449 52.2104C31.0449 52.045 30.1316 51.3944 29.8992 51.3944C29.6793 51.3944 29.2217 51.9027 29.2217 52.1469C29.2217 52.2528 29.1865 52.3614 29.1432 52.388C29.1002 52.4147 28.9175 52.7199 28.7372 53.0662C28.4588 53.6015 28.4086 53.7824 28.4032 54.2705C28.3962 54.9049 28.4137 54.9298 29.3939 55.668C29.6079 55.8291 29.8419 56.066 29.9141 56.1945C30.0333 56.4069 30.0303 56.4552 29.8801 56.7341C29.7893 56.9024 29.6659 57.0401 29.606 57.0401C29.5458 57.0401 29.4836 57.0784 29.4676 57.1251C29.4517 57.1717 29.1456 57.2936 28.7875 57.3956C27.6395 57.7228 27.3908 57.9037 27.2199 58.5356C27.1546 58.7772 27.1666 59.0066 27.2678 59.4477C27.4202 60.1119 27.6935 60.9439 27.8544 61.2332C28.0458 61.5775 28.9081 62.4254 29.2457 62.6015C30.0391 63.0151 30.3946 62.6861 30.6083 61.3397C30.7352 60.5406 30.9758 60.0991 31.4588 59.7794C31.7815 59.5655 31.9174 59.3584 32.2291 58.6027C32.446 58.0773 32.5752 57.9144 33.079 57.5334C33.6253 57.1199 33.7837 56.8523 33.8619 56.2115C33.9391 55.5788 34.2257 55.2162 34.6484 55.2162C34.8777 55.2162 34.9525 55.2739 35.1271 55.5852C35.7237 56.6489 36.5206 56.8828 37.1971 56.1926C37.3256 56.0617 37.6108 55.7004 37.8308 55.3898C38.3839 54.6096 39.0286 53.9554 39.6039 53.5902C39.6957 53.5321 40.0638 53.3354 40.4221 53.1531C41.4997 52.6053 41.5733 52.5408 41.5102 52.2044C41.4803 52.045 41.3156 51.6792 41.1446 51.3916C40.8333 50.869 40.5493 50.6015 40.1855 50.4887C40.0794 50.4557 39.9183 50.3236 39.8279 50.1948C39.671 49.9719 39.3801 48.9842 39.3801 48.6742C39.3801 48.3515 38.8287 47.5193 38.5034 47.351C38.1498 47.1682 37.9237 47.1964 37.3397 47.4968ZM41.3337 54.0792C41.1903 54.1588 40.9079 54.3299 40.706 54.4595C40.5039 54.589 40.2989 54.6949 40.2501 54.6949C40.2015 54.6949 40.1616 54.7304 40.1616 54.7737C40.1616 54.8169 39.9858 54.9554 39.7708 55.0813C39.5559 55.2074 39.3801 55.3478 39.3801 55.3936C39.3801 55.4394 39.3417 55.4767 39.2946 55.4767C39.2475 55.4767 39.0034 55.6714 38.752 55.9094C38.5005 56.1472 38.269 56.3427 38.2374 56.3436C38.2057 56.3445 37.8052 56.7629 37.3474 57.2735C36.5244 58.1911 36.5149 58.2065 36.5149 58.6466C36.5149 58.9035 36.5688 59.163 36.6423 59.2602C36.8791 59.5733 36.8075 59.8467 36.4428 60.0214C36.119 60.1765 36.1061 60.1761 35.8143 60.0016C35.6504 59.9034 35.4187 59.6959 35.2995 59.5403C34.8511 58.9559 34.386 58.4975 34.0265 58.2868C33.6618 58.0731 33.6509 58.072 33.3921 58.225C33.2474 58.3106 33.1287 58.4184 33.1287 58.4644C33.1287 58.5105 32.9073 59.0005 32.6364 59.5531C32.2847 60.2713 32.1329 60.6895 32.1042 61.0191C32.0649 61.4762 32.0684 61.4841 32.4784 61.8661C32.7061 62.0781 32.9277 62.2517 32.9706 62.2517C33.0136 62.2517 33.2035 62.4051 33.3926 62.5924C33.844 63.0394 33.8478 63.3022 33.4083 63.7202C33.1507 63.9648 32.9326 64.0688 32.3991 64.2015C32.0165 64.2967 31.5747 64.4748 31.3906 64.6082C31.1112 64.8106 31.0542 64.909 31.0037 65.2759C30.9108 65.9523 31.0178 66.4955 31.4607 67.5936C31.8544 68.5698 33.1268 69.6705 33.6645 69.4997C34.129 69.3523 34.4312 68.685 34.4312 67.8066V67.2872L34.983 66.7405C35.3848 66.3424 35.6374 65.987 35.9121 65.4322C36.2277 64.7952 36.3503 64.6348 36.6626 64.4518C36.8678 64.3315 37.0358 64.1975 37.0358 64.1544C37.0358 64.111 37.0861 64.0758 37.1474 64.0758C37.329 64.0758 37.5567 63.598 37.5567 63.2172C37.5567 62.7436 37.7786 62.2149 38.035 62.0777C38.2973 61.9371 38.5233 62.0692 39.2083 62.7643C39.8509 63.416 40.0546 63.5014 40.6728 63.3775C41.0867 63.2948 41.2222 63.2149 41.5724 62.8461C41.7992 62.6073 41.985 62.3975 41.985 62.38C41.985 62.3369 43.1143 61.2095 43.1575 61.2095C43.1763 61.2095 43.3598 61.0996 43.5651 60.9652C43.7705 60.8311 44.1143 60.6501 44.3291 60.5634C45.2062 60.2095 45.2842 60.1498 45.2842 59.8316C45.2842 59.2018 45.077 58.3827 44.8142 57.974C44.6683 57.7471 44.4995 57.5614 44.4391 57.5614C44.3786 57.5614 44.3291 57.526 44.3291 57.483C44.3291 57.4399 44.2217 57.3635 44.0904 57.3132C43.5957 57.124 43.4207 56.8304 43.2345 55.8777C43.1123 55.2515 42.8353 54.5903 42.594 54.3489C42.1391 53.8938 41.7988 53.821 41.3337 54.0792ZM44.9803 61.6629C44.6439 61.7824 43.8082 62.332 43.8082 62.4339C43.8082 62.4771 43.7673 62.5123 43.7172 62.5123C43.6673 62.5123 43.5401 62.6007 43.435 62.7089C43.3298 62.8171 42.9116 63.1978 42.5058 63.5549C42.0999 63.912 41.6214 64.3513 41.4422 64.5309C41.2632 64.7105 41.0954 64.8575 41.0692 64.8575C40.978 64.8575 40.576 65.3364 40.4991 65.5364C40.3867 65.8296 40.41 66.2589 40.5523 66.5079C40.6205 66.6272 40.6777 66.7653 40.6794 66.8147C40.6838 66.9395 40.2177 67.2027 39.9928 67.2027C39.8134 67.2027 39.1196 66.5646 39.1196 66.3999C39.1196 66.2848 38.565 65.4704 38.2639 65.1434C37.7899 64.6287 37.2883 64.6992 36.9927 65.3225C36.9162 65.4838 36.7774 65.6975 36.6843 65.7976C36.5912 65.8975 36.5149 66.0169 36.5149 66.0627C36.5149 66.1084 36.4857 66.1589 36.4498 66.1749C36.3073 66.2382 35.9967 66.7708 35.8622 67.182C35.7258 67.5995 35.7273 67.6328 35.9001 68.0124C36.0106 68.2549 36.2847 68.5864 36.6084 68.8693C37.1312 69.326 37.1362 69.3346 37.0946 69.7206C37.0615 70.028 36.9918 70.1612 36.7653 70.3502C36.4373 70.6241 36.3446 70.6358 35.8637 70.4624C34.7856 70.0738 34.1707 70.5805 34.1707 71.8581C34.1707 72.7038 34.487 73.3858 35.1798 74.033C35.8816 74.6888 36.3951 74.7401 36.7546 74.1903C36.8627 74.0254 36.9918 73.6996 37.0419 73.4665C37.1425 72.9972 37.5899 72.4143 37.8495 72.4143C38.1112 72.4143 38.5226 72.1367 38.9856 71.6482C39.4442 71.1642 39.8468 70.9377 40.2473 70.9377C40.5886 70.9377 40.943 70.6312 40.943 70.3363C40.943 70.2036 41.0604 69.933 41.2039 69.7345C41.6236 69.155 41.9802 69.2777 42.429 70.1559C42.6622 70.612 43.013 70.9904 43.3059 71.102C43.5386 71.1904 43.9651 71.1358 44.1427 70.9946C44.2075 70.9433 44.4615 70.8759 44.7071 70.8448C45.55 70.7383 46.7519 70.3348 47.1664 70.0193C47.8745 69.4799 47.905 67.4785 47.2217 66.3956C47.1015 66.205 46.9548 65.9093 46.8956 65.7384C46.4639 64.4917 46.766 64.2763 46.4648 63.2941C46.1811 62.3691 45.8751 61.7517 45.6491 61.6482C45.4115 61.5395 45.3232 61.5414 44.9803 61.6629ZM45.6316 71.6699C44.6244 72.02 44.1437 72.2712 43.2485 72.9161C42.5205 73.4403 42.3597 73.7073 42.4401 74.2563C42.4736 74.4841 42.4565 74.4988 42.157 74.4988C41.7165 74.4988 41.5948 74.3313 41.2404 73.238C40.7341 71.6749 40.5197 71.5089 39.7185 72.059C39.4338 72.2543 39.1791 72.4143 39.1524 72.4143C39.051 72.4143 38.6398 72.7837 38.4926 73.0068C38.4084 73.1348 38.3391 73.3294 38.3389 73.4395C38.3382 73.6308 38.6486 74.4076 38.7618 74.4988C39.0587 74.7376 39.1056 75.2945 38.8502 75.5501C38.639 75.7613 38.3532 75.7348 37.7643 75.4496C37.5656 75.3533 37.2107 75.2519 36.9756 75.224C36.5895 75.1782 36.5217 75.1977 36.2804 75.4223C36.1331 75.5593 35.888 75.8765 35.7356 76.1273C35.4841 76.5406 35.4617 76.6341 35.4961 77.1262C35.5406 77.7613 35.7075 78.2336 36.0302 78.6382C36.378 79.0743 36.5811 79.0296 37.7299 78.2654L38.2975 77.888L39.1712 77.897C39.8198 77.9038 40.1148 77.87 40.316 77.7658C40.4792 77.6816 40.7992 77.6258 41.1201 77.6258C41.5667 77.6258 41.6796 77.5939 41.8162 77.4304C41.9058 77.3229 41.9804 77.1888 41.9819 77.1326C41.9836 77.0764 42.0829 76.9532 42.2029 76.8588C42.3855 76.7152 42.468 76.7016 42.7093 76.7756C42.9906 76.862 43.0015 76.8838 43.1556 77.6575C43.343 78.6 43.5619 79.082 43.831 79.145C43.9378 79.1701 44.1968 79.1382 44.4065 79.0745C44.738 78.9737 44.8688 78.978 45.4051 79.1082C45.7446 79.1906 46.1263 79.299 46.2534 79.3489C46.553 79.4667 46.7511 79.3024 47.0226 78.7115C47.192 78.3429 47.2232 78.1258 47.2298 77.2783C47.2345 76.6886 47.1878 76.0761 47.1162 75.7834C46.9823 75.2369 47.0205 75.0318 47.4917 73.7695C47.8317 72.8585 47.7585 71.9989 47.3048 71.5784C47.0028 71.2984 46.6436 71.318 45.6316 71.6699ZM40.7429 78.4155C40.167 78.4997 39.7528 78.7539 39.6731 79.0719C39.6427 79.1923 39.6439 79.5419 39.6753 79.8489C39.7373 80.4542 39.6458 80.7529 39.3988 80.7522C39.2417 80.7518 38.5987 80.2083 38.5987 80.0758C38.5987 80.0332 38.4619 79.9247 38.2948 79.8346C37.996 79.6734 37.9855 79.6736 37.6654 79.8427C37.0151 80.1857 36.7659 80.599 36.6355 81.5505C36.5692 82.0337 36.7647 82.4621 37.0886 82.5433C37.2157 82.5754 37.5302 82.5333 37.8175 82.4463C38.3557 82.2834 38.3866 82.29 39.2064 82.7442C39.7953 83.0705 40.8384 83.1982 41.0298 82.9676C41.1764 82.7908 41.5699 82.803 41.7282 82.9892C41.8145 83.0906 41.8388 83.2278 41.8011 83.4018C41.7702 83.5452 41.7402 83.8799 41.7346 84.1454C41.7267 84.5203 41.764 84.6709 41.9006 84.8175C42.1018 85.0338 42.2218 85.0657 43.0964 85.1345C43.4453 85.162 43.8198 85.243 43.9287 85.3145C44.1105 85.4336 44.1452 85.4281 44.3485 85.2481C44.6644 84.9685 44.8181 84.6081 44.8782 84.0065C44.9342 83.444 45.1455 82.8373 45.2853 82.8373C45.3324 82.8373 45.371 82.7961 45.371 82.7455C45.371 82.695 45.4809 82.5484 45.615 82.4199C45.7493 82.2912 45.9247 82.0805 46.0048 81.9516C46.1623 81.6981 46.2947 80.6384 46.2109 80.3035C46.1287 79.9761 45.6174 79.7831 44.7198 79.7403C43.464 79.6804 42.5901 80.0613 42.2802 80.8035C42.1419 81.1344 42.0923 81.1544 41.8495 80.9768C41.6946 80.8636 41.6832 80.7588 41.7078 79.6797C41.7331 78.5815 41.7235 78.4999 41.5616 78.4132C41.4665 78.3623 41.3567 78.3254 41.3177 78.3312C41.2787 78.3371 41.02 78.3749 40.7429 78.4155ZM39.2842 83.8109C39.2076 83.9202 39.1171 84.2319 39.0832 84.5031C38.9777 85.3508 38.6416 85.3963 38.2656 84.6138C37.994 84.0489 37.8755 83.9721 37.4345 84.0746C36.943 84.1888 36.5879 84.6002 36.4439 85.2217C36.2902 85.8855 36.4196 86.1037 37.0125 86.1803C37.5221 86.2462 37.6897 86.3363 38.2259 86.8327C38.8302 87.3924 38.9845 87.4637 39.4549 87.3998C39.7961 87.3536 39.8737 87.3713 39.9617 87.5149C40.0459 87.6521 40.0333 87.7737 39.8967 88.1478C39.5875 88.994 39.6974 89.294 40.4323 89.6099C40.5461 89.6587 40.6977 89.7318 40.7693 89.7721C41.3239 90.0854 41.572 90.1244 41.7676 89.9288C41.9915 89.7049 42.2447 89.2205 42.2449 89.0157C42.2453 88.8102 42.6108 88.402 43.1889 87.962C43.7643 87.5238 43.9979 86.5894 43.6394 86.1595C43.5497 86.0521 43.4418 85.9641 43.3992 85.9641C43.3566 85.9641 43.2763 85.9185 43.2206 85.8627C43.0785 85.7206 42.5386 85.5431 42.0454 85.476C41.55 85.4089 41.0504 85.6105 40.804 85.9773C40.6619 86.1886 40.6374 86.1968 40.5376 86.0655C40.3906 85.8723 40.3935 85.4027 40.5432 85.1128C40.7034 84.8032 40.7979 83.9574 40.6905 83.7958C40.6337 83.7103 40.4119 83.6594 40.0148 83.6402C39.4802 83.6147 39.4101 83.6309 39.2842 83.8109ZM35.3428 87.5033C35.0924 87.5643 34.8711 87.7839 34.6772 88.164C34.4212 88.6661 34.4887 88.9097 34.9519 89.154C35.3285 89.3526 35.8204 89.8068 35.8204 89.9559C35.8204 89.9957 35.9961 90.2145 36.2109 90.4419C36.4923 90.7399 36.69 90.8699 36.9177 90.9071C37.3853 90.9832 37.4533 91.1604 37.1758 91.5799C37.049 91.7715 36.9091 92.0544 36.865 92.2084C36.7875 92.4786 36.8073 92.5105 37.4094 93.0906C38.2715 93.9208 38.4092 93.9042 39.1588 92.8806C39.3114 92.6724 39.5759 92.4662 39.8541 92.3388C40.3579 92.1081 40.6024 91.8722 40.7651 91.4596C41.0195 90.8147 40.5412 90.2245 39.3984 89.7733C38.9977 89.6153 38.711 89.6515 38.3163 89.9101C38.1164 90.0411 38.0944 90.0413 38.045 89.9124C37.9812 89.7465 38.0614 89.3615 38.198 89.1779C38.5761 88.6693 38.7292 88.105 38.5405 87.916C38.4702 87.8459 38.3555 87.7882 38.2856 87.7882C38.2157 87.7882 38.0625 87.7253 37.9452 87.6484C37.822 87.5675 37.6488 87.5298 37.5356 87.559C37.3359 87.6107 37.0358 88.0438 37.0358 88.281C37.0358 88.3532 36.9612 88.5072 36.8699 88.6233L36.7041 88.8342L36.527 88.6092C36.4298 88.4853 36.3239 88.2098 36.2921 87.9968C36.2156 87.4872 35.9583 87.3532 35.3428 87.5033ZM34.3361 91.2842C34.0348 91.8835 33.9357 91.9574 33.4343 91.9574C32.9026 91.9574 32.6568 92.1594 32.5616 92.6743C32.4494 93.2832 33.0466 93.7628 33.7818 93.6545C34.0198 93.6194 34.1857 93.6433 34.3027 93.7293C34.4653 93.8488 34.467 93.8685 34.3327 94.1007C34.0314 94.6213 34.0296 95.253 34.3282 95.5766C34.5898 95.8604 35.0271 96.1267 35.2313 96.1267C35.3714 96.1267 35.4666 96.0453 35.5517 95.8531C35.6182 95.7025 35.7354 95.5161 35.8117 95.4388C36.027 95.2211 36.4545 94.6371 36.6316 94.319C36.8154 93.9884 36.7762 93.714 36.4874 93.309C36.3833 93.1628 36.2393 92.8673 36.1676 92.6522C36.0285 92.2348 35.7819 92.104 35.5457 92.322C34.9997 92.8254 34.7492 92.6818 35.0225 92.0218C35.2627 91.4419 35.2622 91.2203 35.0195 91.0503C34.7027 90.8283 34.5365 90.8852 34.3361 91.2842ZM31.9341 94.6946C31.7646 94.9564 31.6915 94.9974 31.3946 94.9974C31.1438 94.9974 31.0269 95.0428 30.9611 95.1655C30.7145 95.6267 31.0672 96.0398 31.7079 96.0398C32.0251 96.0398 32.0869 96.0671 32.0869 96.2083C32.0869 96.3012 32.0477 96.4011 32.0001 96.4307C31.835 96.5326 31.9044 97.0437 32.1086 97.2298C32.4993 97.586 32.8683 97.657 32.8683 97.3762C32.8683 97.307 32.9269 97.2279 32.9985 97.2004C33.0701 97.1728 33.1287 97.1001 33.1287 97.0387C33.1287 96.9772 33.1788 96.9077 33.2398 96.8843C33.3011 96.8609 33.4256 96.7034 33.5164 96.5343L33.6818 96.2271L33.4488 95.8747C33.3205 95.681 33.215 95.4921 33.2142 95.4554C33.2135 95.4185 33.1794 95.3352 33.1381 95.2703C33.0759 95.172 33.0109 95.1712 32.751 95.2652C32.5792 95.3274 32.4164 95.3561 32.3893 95.3289C32.3621 95.3018 32.4066 95.1399 32.488 94.969C32.6097 94.7136 32.6161 94.6345 32.5245 94.524C32.3469 94.3099 32.1455 94.3682 31.9341 94.6946Z" fill="black"/>
<path d="M290.002 49.9691C290.672 50.7143 291.164 51.5341 291.477 52.4284C291.805 53.3077 291.968 54.3362 291.968 55.5137C291.968 58.3159 290.932 60.6263 288.862 62.4445C286.79 64.263 284.22 65.1721 281.151 65.1721C279.736 65.1721 278.32 64.9562 276.905 64.5238C275.488 64.0766 274.268 63.5401 273.239 62.914L272.278 64.5463H270.49L270.178 53.6805H271.988C272.361 55.022 272.793 56.2366 273.284 57.3248C273.791 58.3979 274.454 59.4039 275.274 60.343C276.048 61.2224 276.95 61.9229 277.977 62.4445C279.021 62.9662 280.226 63.227 281.598 63.227C282.626 63.227 283.519 63.093 284.28 62.8247C285.055 62.5563 285.68 62.1764 286.157 61.6845C286.633 61.1926 286.984 60.6187 287.208 59.9629C287.445 59.2921 287.566 58.5245 287.566 57.6601C287.566 56.3932 287.208 55.2157 286.492 54.1275C285.778 53.0247 284.712 52.19 283.297 51.6235C282.329 51.236 281.217 50.8112 279.966 50.3491C278.715 49.8723 277.634 49.4251 276.726 49.0078C274.938 48.2029 273.544 47.152 272.548 45.8554C271.564 44.5437 271.073 42.837 271.073 40.7355C271.073 39.5282 271.317 38.4029 271.809 37.3594C272.301 36.316 273.002 35.3845 273.91 34.5647C274.774 33.7897 275.795 33.1861 276.971 32.7537C278.148 32.3067 279.379 32.083 280.66 32.083C282.12 32.083 283.423 32.3067 284.571 32.7537C285.733 33.201 286.79 33.7226 287.743 34.3189L288.66 32.7986H290.448L290.627 43.3289H288.817C288.489 42.1216 288.116 40.9665 287.7 39.8635C287.296 38.7606 286.767 37.7619 286.112 36.8677C285.471 36.003 284.689 35.3174 283.766 34.8106C282.841 34.2889 281.709 34.0281 280.369 34.0281C278.953 34.0281 277.747 34.4829 276.749 35.392C275.75 36.3012 275.251 37.4116 275.251 38.7233C275.251 40.0945 275.571 41.2347 276.212 42.144C276.852 43.0383 277.783 43.7761 279.006 44.3573C280.093 44.879 281.159 45.3336 282.201 45.7212C283.259 46.0938 284.28 46.4962 285.264 46.9285C286.157 47.316 287.014 47.7557 287.833 48.2475C288.668 48.7394 289.389 49.3133 290.002 49.9691Z" fill="#134E4A"/>
<path d="M269.069 34.3862C268.651 34.4011 268.04 34.4906 267.236 34.6546C266.432 34.8186 265.776 35.0645 265.269 35.3922C264.762 35.7351 264.412 36.4431 264.22 37.5162C264.026 38.5895 263.928 39.9012 263.928 41.4513V55.2457C263.928 57.0046 263.564 58.5323 262.833 59.8291C262.104 61.1259 261.142 62.1915 259.951 63.0262C258.774 63.8311 257.53 64.405 256.219 64.7478C254.923 65.1055 253.678 65.2843 252.485 65.2843C250.579 65.2843 248.879 65.031 247.391 64.5243C245.901 64.0324 244.648 63.3616 243.637 62.5121C242.638 61.6625 241.885 60.6936 241.378 59.6056C240.873 58.5025 240.619 57.3548 240.619 56.1624V37.4045C240.619 36.8828 240.53 36.4506 240.351 36.1078C240.187 35.7501 239.844 35.4222 239.323 35.1241C238.95 34.9154 238.473 34.7515 237.893 34.6322C237.311 34.498 236.834 34.416 236.463 34.3862V32.7988H249.671V34.3862C249.253 34.4011 248.723 34.4682 248.083 34.5875C247.457 34.7066 246.996 34.8186 246.698 34.9228C246.191 35.1016 245.848 35.3998 245.669 35.817C245.505 36.2345 245.424 36.6891 245.424 37.1809V54.7092C245.424 55.5588 245.513 56.4532 245.692 57.3921C245.886 58.3163 246.259 59.1808 246.809 59.9855C247.391 60.8053 248.181 61.4761 249.179 61.9977C250.177 62.5194 251.547 62.7802 253.29 62.7802C254.929 62.7802 256.3 62.5194 257.402 61.9977C258.519 61.4761 259.399 60.7905 260.04 59.9409C260.65 59.136 261.083 58.2939 261.336 57.4145C261.59 56.5352 261.716 55.6483 261.716 54.754V41.7419C261.716 40.0874 261.598 38.7386 261.358 37.6952C261.121 36.6368 260.77 35.9439 260.309 35.616C259.787 35.2434 259.071 34.9526 258.163 34.7439C257.268 34.5353 256.583 34.416 256.106 34.3862V32.7988H269.069V34.3862Z" fill="#134E4A"/>
<path d="M236.201 55.0893L235.53 64.5243H210.746V62.9368C211.104 62.9071 211.618 62.8549 212.289 62.7802C212.975 62.7058 213.451 62.6089 213.719 62.4896C214.165 62.2959 214.486 62.0126 214.68 61.64C214.889 61.2674 214.992 60.7905 214.992 60.2092V37.494C214.992 36.9872 214.904 36.54 214.725 36.1525C214.561 35.765 214.226 35.452 213.719 35.2134C213.376 35.0345 212.892 34.8632 212.266 34.6993C211.656 34.5204 211.149 34.416 210.746 34.3862V32.7988H224.133V34.3862C223.717 34.4011 223.172 34.4758 222.501 34.6098C221.846 34.7439 221.369 34.8632 221.072 34.9675C220.565 35.1465 220.214 35.452 220.02 35.8841C219.841 36.3165 219.753 36.7786 219.753 37.2705V58.5772C219.753 59.5607 219.798 60.3283 219.887 60.88C219.992 61.4165 220.222 61.8338 220.58 62.1319C220.923 62.4003 221.43 62.5791 222.1 62.6685C222.784 62.7431 223.739 62.7802 224.96 62.7802C225.512 62.7802 226.085 62.7653 226.682 62.7356C227.277 62.7058 227.842 62.6462 228.379 62.5567C228.901 62.4672 229.378 62.3481 229.809 62.199C230.257 62.0351 230.585 61.8338 230.792 61.5954C231.405 60.9098 232.111 59.8738 232.915 58.4876C233.735 57.0866 234.302 55.9538 234.615 55.0893H236.201Z" fill="#134E4A"/>
<path d="M208.458 40.6239C208.458 42.2784 208.131 43.7466 207.475 45.0285C206.835 46.2953 205.94 47.3462 204.792 48.1809C203.66 49.0156 202.417 49.6266 201.06 50.0142C199.706 50.4017 198.267 50.5954 196.748 50.5954H193.193V60.2092C193.193 60.7309 193.276 61.1928 193.44 61.5954C193.619 61.9829 193.977 62.281 194.512 62.4896C194.782 62.594 195.251 62.6909 195.921 62.7802C196.607 62.8697 197.232 62.922 197.798 62.9368V64.5243H184.188V62.9368C184.545 62.9071 185.059 62.8549 185.73 62.7802C186.415 62.7058 186.892 62.6089 187.16 62.4896C187.607 62.2959 187.927 62.0126 188.121 61.64C188.33 61.2674 188.435 60.7905 188.435 60.2092V37.3151C188.435 36.7935 188.359 36.3238 188.21 35.9066C188.061 35.4893 187.711 35.1763 187.16 34.9675C186.594 34.7737 186.028 34.6397 185.461 34.5651C184.91 34.4758 184.433 34.416 184.031 34.3862V32.7988H198.514C201.464 32.7988 203.854 33.5142 205.687 34.9452C207.535 36.3611 208.458 38.254 208.458 40.6239ZM201.665 46.0345C202.17 45.3191 202.505 44.5813 202.669 43.8212C202.833 43.046 202.916 42.3529 202.916 41.7419C202.916 40.8923 202.812 40.0278 202.603 39.1485C202.409 38.2689 202.066 37.5013 201.575 36.8457C201.053 36.145 200.367 35.6011 199.519 35.2134C198.67 34.8259 197.611 34.6322 196.345 34.6322H193.193V48.6503H195.473C197.084 48.6503 198.387 48.4044 199.386 47.9125C200.397 47.4057 201.158 46.7798 201.665 46.0345Z" fill="#134E4A"/>
<path d="M177.11 36.5544C178.51 38.015 179.605 39.7812 180.395 41.853C181.185 43.9098 181.579 46.1904 181.579 48.6945C181.579 51.2133 181.177 53.5012 180.372 55.5583C179.568 57.6151 178.45 59.3665 177.02 60.8122C175.634 62.243 174.025 63.3461 172.193 64.1212C170.36 64.8962 168.408 65.2836 166.338 65.2836C164.132 65.2836 162.091 64.8737 160.214 64.0541C158.352 63.2194 156.75 62.0642 155.409 60.5887C154.068 59.1428 153.01 57.3914 152.235 55.3346C151.476 53.2628 151.096 51.0493 151.096 48.6945C151.096 46.1158 151.498 43.8205 152.303 41.8083C153.107 39.7812 154.217 38.0298 155.632 36.5544C157.033 35.0936 158.657 33.9757 160.505 33.2007C162.367 32.4256 164.311 32.0381 166.338 32.0381C168.438 32.0381 170.42 32.4331 172.282 33.2229C174.145 34.013 175.754 35.1234 177.11 36.5544ZM173.78 59.0459C174.614 57.6896 175.217 56.1544 175.59 54.4403C175.977 52.7263 176.171 50.8109 176.171 48.6945C176.171 46.5183 175.955 44.521 175.523 42.7026C175.106 40.8843 174.487 39.334 173.668 38.0523C172.848 36.7852 171.82 35.8017 170.584 35.1012C169.347 34.3856 167.932 34.0279 166.338 34.0279C164.55 34.0279 163.03 34.4378 161.778 35.2576C160.527 36.0774 159.506 37.1729 158.717 38.5442C157.972 39.8558 157.413 41.3911 157.04 43.1498C156.683 44.9085 156.504 46.7567 156.504 48.6945C156.504 50.8407 156.698 52.7785 157.085 54.5074C157.472 56.2364 158.083 57.7716 158.918 59.113C159.722 60.4247 160.735 61.4532 161.957 62.1983C163.179 62.9286 164.639 63.2939 166.338 63.2939C167.932 63.2939 169.369 62.9213 170.651 62.1761C171.932 61.4307 172.975 60.3874 173.78 59.0459Z" fill="#134E4A"/>
<path d="M149.631 55.1788L149.028 64.5243H122.701V62.9368C123.148 62.9071 123.744 62.8473 124.489 62.758C125.234 62.6536 125.718 62.5492 125.942 62.445C126.419 62.2214 126.746 61.9306 126.925 61.5729C127.119 61.2152 127.216 60.7607 127.216 60.2092V37.4045C127.216 36.9126 127.134 36.4804 126.97 36.1078C126.806 35.7202 126.463 35.4073 125.942 35.1687C125.539 34.975 124.996 34.8037 124.31 34.6546C123.64 34.5055 123.103 34.416 122.701 34.3862V32.7988H147.24V40.4451H145.564C145.266 39.3124 144.618 38.1125 143.619 36.8457C142.636 35.5637 141.698 34.8632 140.804 34.7439C140.342 34.6844 139.791 34.6397 139.15 34.6098C138.509 34.58 137.779 34.5651 136.96 34.5651H131.976V47.1747H135.552C136.699 47.1747 137.533 47.0705 138.055 46.8618C138.591 46.6381 139.061 46.2731 139.463 45.7663C139.791 45.334 140.066 44.7601 140.29 44.0447C140.528 43.3144 140.684 42.6288 140.759 41.9878H142.435V54.3961H140.759C140.699 53.6807 140.535 52.928 140.267 52.1382C140.014 51.3333 139.746 50.7519 139.463 50.3942C139.001 49.8129 138.472 49.4328 137.876 49.254C137.295 49.0751 136.52 48.9858 135.552 48.9858H131.976V58.5101C131.976 59.4639 132.043 60.2166 132.177 60.768C132.311 61.3197 132.572 61.7369 132.959 62.0202C133.347 62.3034 133.876 62.4896 134.546 62.5791C135.216 62.6536 136.17 62.6909 137.407 62.6909C137.898 62.6909 138.546 62.6909 139.351 62.6909C140.155 62.6909 140.833 62.6611 141.385 62.6014C141.951 62.5418 142.532 62.4374 143.128 62.2883C143.739 62.1244 144.171 61.9084 144.424 61.64C145.109 60.9246 145.825 59.844 146.57 58.3983C147.329 56.9375 147.814 55.8644 148.022 55.1788H149.631Z" fill="#134E4A"/>
<path d="M121.773 41.4064H120.231C120.097 40.8699 119.851 40.2365 119.494 39.5062C119.151 38.7608 118.764 38.0603 118.332 37.4045C117.885 36.7188 117.393 36.1227 116.856 35.616C116.335 35.0943 115.828 34.7961 115.337 34.7217C114.875 34.662 114.294 34.6173 113.594 34.5875C112.893 34.5577 112.245 34.5427 111.649 34.5427H110.353V59.9184C110.353 60.4103 110.457 60.8651 110.666 61.2823C110.875 61.6847 111.24 61.9977 111.761 62.2214C112.029 62.3257 112.588 62.4672 113.437 62.6462C114.301 62.8251 114.972 62.922 115.449 62.9368V64.5243H100.475V62.9368C100.892 62.9071 101.525 62.8473 102.375 62.758C103.239 62.6685 103.835 62.5567 104.163 62.4225C104.654 62.2288 105.012 61.9531 105.235 61.5954C105.474 61.2228 105.593 60.7309 105.593 60.1197V34.5427H104.297C103.835 34.5427 103.261 34.5577 102.576 34.5875C101.89 34.6024 101.235 34.6471 100.609 34.7217C100.117 34.7813 99.6034 35.0794 99.0671 35.616C98.5456 36.1376 98.0613 36.7337 97.6144 37.4045C97.1674 38.0752 96.7725 38.7906 96.4299 39.5508C96.0872 40.296 95.8489 40.9147 95.7148 41.4064H94.1504V32.7988H121.773V41.4064Z" fill="#134E4A"/>
<path d="M91.4111 49.9691C92.0816 50.7143 92.5733 51.5341 92.8862 52.4284C93.214 53.3077 93.3779 54.3362 93.3779 55.5137C93.3779 58.3159 92.3423 60.6263 90.2714 62.4445C88.2004 64.263 85.6303 65.1721 82.5611 65.1721C81.1457 65.1721 79.7302 64.9562 78.3148 64.5238C76.8995 64.0766 75.6778 63.5401 74.6497 62.914L73.6886 64.5463H71.9008L71.5879 53.6805H73.3981C73.7705 55.022 74.2027 56.2366 74.6944 57.3248C75.201 58.3979 75.8639 59.4039 76.6834 60.343C77.4582 61.2224 78.3595 61.9229 79.3875 62.4445C80.4306 62.9662 81.6374 63.227 83.0081 63.227C84.0361 63.227 84.93 63.093 85.69 62.8247C86.4646 62.5563 87.0905 62.1764 87.5673 61.6845C88.0439 61.1926 88.3941 60.6187 88.6175 59.9629C88.856 59.2921 88.9751 58.5245 88.9751 57.6601C88.9751 56.3932 88.6175 55.2157 87.9024 54.1275C87.1873 53.0247 86.122 52.19 84.7066 51.6235C83.7381 51.236 82.6281 50.8112 81.3767 50.3491C80.125 49.8723 79.0448 49.4251 78.136 49.0078C76.3482 48.2029 74.9551 47.152 73.9569 45.8554C72.9735 44.5437 72.4818 42.837 72.4818 40.7355C72.4818 39.5282 72.7276 38.4029 73.2193 37.3594C73.711 36.316 74.4112 35.3845 75.32 34.5647C76.1843 33.7897 77.2048 33.1861 78.3819 32.7537C79.5589 32.3067 80.7882 32.083 82.0694 32.083C83.5296 32.083 84.8332 32.3067 85.9805 32.7537C87.1426 33.201 88.2004 33.7226 89.154 34.3189L90.0702 32.7986H91.8582L92.0369 43.3289H90.2267C89.8989 42.1216 89.5265 40.9665 89.1092 39.8635C88.707 38.7606 88.178 37.7619 87.5224 36.8677C86.8819 36.003 86.0997 35.3174 85.1759 34.8106C84.2522 34.2889 83.1198 34.0281 81.7789 34.0281C80.3635 34.0281 79.1567 34.4829 78.1585 35.392C77.1602 36.3012 76.661 37.4116 76.661 38.7233C76.661 40.0945 76.9814 41.2347 77.6221 42.144C78.2626 43.0383 79.1938 43.7761 80.4157 44.3573C81.5033 44.879 82.5686 45.3336 83.6115 45.7212C84.6693 46.0938 85.69 46.4962 86.6732 46.9285C87.5673 47.316 88.4239 47.7557 89.2433 48.2475C90.0777 48.7394 90.8004 49.3133 91.4111 49.9691Z" fill="#134E4A"/>
</g>
</g>
<defs>
<clipPath id="clip0_146_4">
<rect width="292" height="98" fill="white"/>
</clipPath>
</defs>
</svg>
