<svg width="21" height="21" viewBox="0 0 21 21" fill="none" xmlns="http://www.w3.org/2000/svg">
<path d="M2.5 0C1.12524 0 0 1.12524 0 2.5V18.5C0 19.8748 1.12524 21 2.5 21H10.916C10.97 21.0089 11.0251 21.0089 11.0791 21H13.916C13.97 21.0089 14.0251 21.0089 14.0791 21H18.5C19.8748 21 21 19.8748 21 18.5V2.5C21 1.12524 19.8748 0 18.5 0H2.5ZM2.5 1H18.5C19.3342 1 20 1.66576 20 2.5V18.5C20 19.3342 19.3342 20 18.5 20H14.5V13H16.4102L17.1104 9.5H14.5V8.5C14.5 8.22125 14.5265 8.19946 14.6201 8.13867C14.7137 8.07788 15.0029 8 15.5 8H17V5.18457L16.7148 5.04883C16.7148 5.04883 15.5663 4.5 14 4.5C12.875 4.5 11.9508 4.94823 11.3594 5.6875C10.768 6.42677 10.5 7.41667 10.5 8.5V9.5H9V13H10.5V20H2.5C1.66576 20 1 19.3342 1 18.5V2.5C1 1.66576 1.66576 1 2.5 1ZM14 5.5C15.0395 5.5 15.6937 5.72923 16 5.85059V7H15.5C14.9246 7 14.4635 7.0476 14.0752 7.2998C13.6869 7.55201 13.5 8.03075 13.5 8.5V10.5H15.8896L15.5898 12H13.5V20H11.5V12H10V10.5H11.5V8.5C11.5 7.58333 11.732 6.82323 12.1406 6.3125C12.5492 5.80177 13.125 5.5 14 5.5Z" fill="#F0FDFA"/>
</svg>
